<mxfile host="app.diagrams.net" modified="2023-05-15T20:11:48.895Z" agent="Mozilla/5.0 (Windows NT 10.0; Win64; x64) AppleWebKit/537.36 (KHTML, like Gecko) Chrome/113.0.0.0 Safari/537.36" etag="T2Yw1VYb6eUDkW1r8f3H" version="21.2.9" type="github">
  <diagram name="Page-1" id="7e0a89b8-554c-2b80-1dc8-d5c74ca68de4">
    <mxGraphModel dx="1373" dy="700" grid="1" gridSize="10" guides="1" tooltips="1" connect="1" arrows="1" fold="1" page="1" pageScale="1" pageWidth="1100" pageHeight="850" background="none" math="0" shadow="0">
      <root>
        <mxCell id="0" />
        <mxCell id="1" parent="0" />
        <mxCell id="295mJumc4yY-vUVJhrtn-11" value="Red Pitaya" style="whiteSpace=wrap;html=1;aspect=fixed;" parent="1" vertex="1">
          <mxGeometry x="310" y="160" width="80" height="80" as="geometry" />
        </mxCell>
        <mxCell id="295mJumc4yY-vUVJhrtn-13" style="edgeStyle=orthogonalEdgeStyle;rounded=0;orthogonalLoop=1;jettySize=auto;html=1;exitX=0;exitY=0.25;exitDx=0;exitDy=0;entryX=1;entryY=0.5;entryDx=0;entryDy=0;startArrow=block;startFill=0;endArrow=block;endFill=0;" parent="1" source="295mJumc4yY-vUVJhrtn-12" target="295mJumc4yY-vUVJhrtn-11" edge="1">
          <mxGeometry relative="1" as="geometry" />
        </mxCell>
        <mxCell id="295mJumc4yY-vUVJhrtn-16" value="16P JST SH&lt;br style=&quot;border-color: var(--border-color);&quot;&gt;5 [Vdc], 1.1 [A]&lt;br&gt;TTL Serial" style="edgeLabel;html=1;align=center;verticalAlign=middle;resizable=0;points=[];" parent="295mJumc4yY-vUVJhrtn-13" vertex="1" connectable="0">
          <mxGeometry relative="1" as="geometry">
            <mxPoint as="offset" />
          </mxGeometry>
        </mxCell>
        <mxCell id="-wPaPb_zG9hl0mhc7NVP-2" style="edgeStyle=orthogonalEdgeStyle;rounded=0;orthogonalLoop=1;jettySize=auto;html=1;exitX=1;exitY=0.5;exitDx=0;exitDy=0;entryX=0;entryY=0.5;entryDx=0;entryDy=0;" parent="1" target="-wPaPb_zG9hl0mhc7NVP-1" edge="1">
          <mxGeometry relative="1" as="geometry">
            <mxPoint x="600" y="230" as="sourcePoint" />
          </mxGeometry>
        </mxCell>
        <mxCell id="-wPaPb_zG9hl0mhc7NVP-3" value="Qwiic&lt;br&gt;3.3 [Vdc ]" style="edgeLabel;html=1;align=center;verticalAlign=middle;resizable=0;points=[];" parent="-wPaPb_zG9hl0mhc7NVP-2" vertex="1" connectable="0">
          <mxGeometry x="-0.2769" relative="1" as="geometry">
            <mxPoint x="13" as="offset" />
          </mxGeometry>
        </mxCell>
        <mxCell id="-wPaPb_zG9hl0mhc7NVP-6" style="edgeStyle=orthogonalEdgeStyle;rounded=0;orthogonalLoop=1;jettySize=auto;html=1;exitX=1;exitY=0.75;exitDx=0;exitDy=0;entryX=0;entryY=0.5;entryDx=0;entryDy=0;" parent="1" source="295mJumc4yY-vUVJhrtn-12" target="-wPaPb_zG9hl0mhc7NVP-5" edge="1">
          <mxGeometry relative="1" as="geometry" />
        </mxCell>
        <mxCell id="-wPaPb_zG9hl0mhc7NVP-7" value="Qwiic&lt;br style=&quot;border-color: var(--border-color);&quot;&gt;3.3 [Vdc ]" style="edgeLabel;html=1;align=center;verticalAlign=middle;resizable=0;points=[];" parent="-wPaPb_zG9hl0mhc7NVP-6" vertex="1" connectable="0">
          <mxGeometry x="-0.1179" y="-3" relative="1" as="geometry">
            <mxPoint as="offset" />
          </mxGeometry>
        </mxCell>
        <mxCell id="-wPaPb_zG9hl0mhc7NVP-9" style="edgeStyle=orthogonalEdgeStyle;rounded=0;orthogonalLoop=1;jettySize=auto;html=1;exitX=0;exitY=0.75;exitDx=0;exitDy=0;endArrow=block;endFill=0;" parent="1" source="295mJumc4yY-vUVJhrtn-12" target="-wPaPb_zG9hl0mhc7NVP-8" edge="1">
          <mxGeometry relative="1" as="geometry" />
        </mxCell>
        <mxCell id="-wPaPb_zG9hl0mhc7NVP-10" value="4P&amp;nbsp;" style="edgeLabel;html=1;align=center;verticalAlign=middle;resizable=0;points=[];" parent="-wPaPb_zG9hl0mhc7NVP-9" vertex="1" connectable="0">
          <mxGeometry x="0.2958" y="-2" relative="1" as="geometry">
            <mxPoint x="-6" y="2" as="offset" />
          </mxGeometry>
        </mxCell>
        <mxCell id="PAIl9h2kivwNsSjy3_k1-4" style="edgeStyle=orthogonalEdgeStyle;rounded=0;orthogonalLoop=1;jettySize=auto;html=1;exitX=0.75;exitY=1;exitDx=0;exitDy=0;entryX=0;entryY=0.5;entryDx=0;entryDy=0;" edge="1" parent="1" source="295mJumc4yY-vUVJhrtn-12" target="PAIl9h2kivwNsSjy3_k1-2">
          <mxGeometry relative="1" as="geometry" />
        </mxCell>
        <mxCell id="295mJumc4yY-vUVJhrtn-12" value="SAGE IO&lt;br&gt;17-0010" style="whiteSpace=wrap;html=1;aspect=fixed;" parent="1" vertex="1">
          <mxGeometry x="520" y="210" width="80" height="80" as="geometry" />
        </mxCell>
        <mxCell id="295mJumc4yY-vUVJhrtn-20" style="edgeStyle=orthogonalEdgeStyle;rounded=0;orthogonalLoop=1;jettySize=auto;html=1;exitX=0.75;exitY=1;exitDx=0;exitDy=0;entryX=0.75;entryY=0;entryDx=0;entryDy=0;startArrow=classic;startFill=1;endArrow=classic;endFill=1;" parent="1" source="295mJumc4yY-vUVJhrtn-19" target="295mJumc4yY-vUVJhrtn-12" edge="1">
          <mxGeometry relative="1" as="geometry" />
        </mxCell>
        <mxCell id="295mJumc4yY-vUVJhrtn-24" value="Ethernet" style="edgeLabel;html=1;align=center;verticalAlign=middle;resizable=0;points=[];" parent="295mJumc4yY-vUVJhrtn-20" vertex="1" connectable="0">
          <mxGeometry x="-0.324" y="2" relative="1" as="geometry">
            <mxPoint x="13" y="-2" as="offset" />
          </mxGeometry>
        </mxCell>
        <mxCell id="295mJumc4yY-vUVJhrtn-21" style="edgeStyle=orthogonalEdgeStyle;rounded=0;orthogonalLoop=1;jettySize=auto;html=1;exitX=0.25;exitY=1;exitDx=0;exitDy=0;entryX=0.25;entryY=0;entryDx=0;entryDy=0;startArrow=none;startFill=0;endArrow=block;endFill=0;" parent="1" source="295mJumc4yY-vUVJhrtn-19" target="295mJumc4yY-vUVJhrtn-12" edge="1">
          <mxGeometry relative="1" as="geometry" />
        </mxCell>
        <mxCell id="295mJumc4yY-vUVJhrtn-23" value="24[V] to 50[V], 40[W]" style="edgeLabel;html=1;align=center;verticalAlign=middle;resizable=0;points=[];rotation=0;" parent="295mJumc4yY-vUVJhrtn-21" vertex="1" connectable="0">
          <mxGeometry x="-0.2211" y="1" relative="1" as="geometry">
            <mxPoint x="14" y="-107" as="offset" />
          </mxGeometry>
        </mxCell>
        <mxCell id="295mJumc4yY-vUVJhrtn-25" value="Vin" style="edgeLabel;html=1;align=center;verticalAlign=middle;resizable=0;points=[];" parent="295mJumc4yY-vUVJhrtn-21" vertex="1" connectable="0">
          <mxGeometry x="-0.3099" y="2" relative="1" as="geometry">
            <mxPoint x="-7" y="-3" as="offset" />
          </mxGeometry>
        </mxCell>
        <mxCell id="295mJumc4yY-vUVJhrtn-19" value="13 Pin&lt;br&gt;Bulkhead" style="whiteSpace=wrap;html=1;aspect=fixed;" parent="1" vertex="1">
          <mxGeometry x="530" y="60" width="60" height="60" as="geometry" />
        </mxCell>
        <mxCell id="-wPaPb_zG9hl0mhc7NVP-1" value="photodetect&lt;br&gt;17-0001" style="whiteSpace=wrap;html=1;aspect=fixed;" parent="1" vertex="1">
          <mxGeometry x="730" y="160" width="80" height="80" as="geometry" />
        </mxCell>
        <mxCell id="-wPaPb_zG9hl0mhc7NVP-5" value="BME280" style="whiteSpace=wrap;html=1;aspect=fixed;" parent="1" vertex="1">
          <mxGeometry x="730" y="260" width="80" height="80" as="geometry" />
        </mxCell>
        <mxCell id="-wPaPb_zG9hl0mhc7NVP-8" value="LASER" style="whiteSpace=wrap;html=1;aspect=fixed;" parent="1" vertex="1">
          <mxGeometry x="310" y="260" width="80" height="80" as="geometry" />
        </mxCell>
        <mxCell id="PAIl9h2kivwNsSjy3_k1-2" value="Vacuum&lt;br&gt;Pump" style="whiteSpace=wrap;html=1;aspect=fixed;" vertex="1" parent="1">
          <mxGeometry x="730" y="360" width="80" height="80" as="geometry" />
        </mxCell>
      </root>
    </mxGraphModel>
  </diagram>
</mxfile>
